HIERARCHY
ROOT Hips
{
	OFFSET -0.001795 -0.223333 0.028219
	CHANNELS 6 Xposition Yposition Zposition Zrotation Yrotation Xrotation 
	JOINT LeftUpLeg
	{
		OFFSET 0.069520 -0.091406 -0.006815
		CHANNELS 3 Zrotation Yrotation Xrotation
		JOINT LeftLeg
		{
			OFFSET 0.034277 -0.375199 -0.004496
			CHANNELS 3 Zrotation Yrotation Xrotation
			JOINT LeftFoot
			{
				OFFSET -0.013596 -0.397961 -0.043693
				CHANNELS 3 Zrotation Yrotation Xrotation
				JOINT LeftToe
				{
					OFFSET 0.026358 -0.055791 0.119288
					CHANNELS 3 Zrotation Yrotation Xrotation
					End Site
					{
						OFFSET 0.000000 0.000000 0.000000
					}
				}
			}
		}
	}
	JOINT RightUpLeg
	{
		OFFSET -0.067670 -0.090522 -0.004320
		CHANNELS 3 Zrotation Yrotation Xrotation
		JOINT RightLeg
		{
			OFFSET -0.038290 -0.382569 -0.008850
			CHANNELS 3 Zrotation Yrotation Xrotation
			JOINT RightFoot
			{
				OFFSET 0.015774 -0.398415 -0.042312
				CHANNELS 3 Zrotation Yrotation Xrotation
				JOINT RightToe
				{
					OFFSET -0.025372 -0.048144 0.123348
					CHANNELS 3 Zrotation Yrotation Xrotation
					End Site
					{
						OFFSET 0.000000 0.000000 0.000000
					}
				}
			}
		}
	}
	JOINT Spine
	{
		OFFSET -0.002533 0.108963 -0.026696
		CHANNELS 3 Zrotation Yrotation Xrotation
		JOINT Spine1
		{
			OFFSET 0.005487 0.135180 0.001092
			CHANNELS 3 Zrotation Yrotation Xrotation
			JOINT Spine2
			{
				OFFSET 0.001457 0.052922 0.025425
				CHANNELS 3 Zrotation Yrotation Xrotation
				JOINT Neck
				{
					OFFSET -0.002778 0.213870 -0.042857
					CHANNELS 3 Zrotation Yrotation Xrotation
					JOINT Head
					{
						OFFSET 0.005152 0.064970 0.051349
						CHANNELS 3 Zrotation Yrotation Xrotation
						End Site
						{
							OFFSET 0.000000 0.000000 0.000000
						}
					}
				}
				JOINT LeftShoulder
				{
					OFFSET 0.078845 0.121749 -0.034090
					CHANNELS 3 Zrotation Yrotation Xrotation
					JOINT LeftArm
					{
						OFFSET 0.090977 0.030469 -0.008868
						CHANNELS 3 Zrotation Yrotation Xrotation
						JOINT LeftForeArm
						{
							OFFSET 0.259612 -0.012772 -0.027456
							CHANNELS 3 Zrotation Yrotation Xrotation
							JOINT LeftHand
							{
								OFFSET 0.249234 0.008986 -0.001171
								CHANNELS 3 Zrotation Yrotation Xrotation
								End Site
								{
									OFFSET 0.000000 0.000000 0.000000
								}
							}
						}
					}
				}
				JOINT RightShoulder
				{
					OFFSET -0.081759 0.118833 -0.038615
					CHANNELS 3 Zrotation Yrotation Xrotation
					JOINT RightArm
					{
						OFFSET -0.096012 0.032551 -0.009143
						CHANNELS 3 Zrotation Yrotation Xrotation
						JOINT RightForeArm
						{
							OFFSET -0.253742 -0.013329 -0.021401
							CHANNELS 3 Zrotation Yrotation Xrotation
							JOINT RightHand
							{
								OFFSET -0.255298 0.007772 -0.005559
								CHANNELS 3 Zrotation Yrotation Xrotation
								End Site
								{
									OFFSET 0.000000 0.000000 0.000000
								}
							}
						}
					}
				}
			}
		}
	}
}
MOTION
Frames: 18
Frame Time: 0.050000
0.000000 0.959166 0.000000 -1.387404 2.349614 1.966761 2.466252 -0.071332 -0.268943 -3.683777 0.385006 -6.120745 4.419100 12.316662 13.900319 0.000000 0.000000 0.000000 -0.849539 0.484813 -4.965551 2.483102 -0.284477 -0.541120 -4.865499 -14.115569 14.560304 0.000000 0.000000 0.000000 -1.515270 -0.097137 4.153332 4.291668 -0.397053 -23.883198 -1.127534 -1.992449 26.679712 2.352708 0.282435 -27.972323 0.000000 0.000000 0.000000 -22.335960 -3.347597 0.784972 -52.551605 -9.134637 -4.672138 -14.648457 -21.393786 3.838121 0.000000 0.000000 0.000000 16.128256 7.666243 3.010093 56.920164 10.053839 -3.197013 8.992896 23.265895 2.677278 0.000000 0.000000 0.000000 
-0.000093 0.957976 0.000015 -1.525944 1.770418 2.410576 2.626738 -0.102261 -0.686787 -3.144901 0.362125 -5.784191 4.502821 12.056293 12.028519 0.000000 0.000000 0.000000 -0.743985 0.487453 -4.953869 2.727421 -0.302190 -0.262210 -5.021199 -14.357718 13.523341 0.000000 0.000000 0.000000 -1.585722 -0.070686 3.439868 4.240785 -0.417675 -23.441203 -0.878674 -1.929677 26.174597 2.895550 -0.058406 -27.948062 0.000000 0.000000 0.000000 -22.542900 -2.712311 0.474158 -51.889244 -9.479226 -4.454446 -15.578515 -21.306686 4.002922 0.000000 0.000000 0.000000 15.490009 8.710043 3.441542 57.928090 10.248771 -3.055066 8.430275 24.452156 2.708971 0.000000 0.000000 0.000000 
-0.000385 0.957725 -0.000276 -1.247038 2.268292 2.621216 3.025290 -0.149359 -1.265213 -3.859610 0.396435 -4.567991 4.522433 12.153270 12.166980 0.000000 0.000000 0.000000 -0.761092 0.518903 -5.296800 2.516983 -0.268494 0.568925 -4.897377 -14.094880 13.674026 0.000000 0.000000 0.000000 -1.702053 -0.054083 3.068147 4.298082 -0.420412 -23.463441 -1.223144 -1.956196 25.912205 2.428799 0.178126 -27.121213 0.000000 0.000000 0.000000 -22.675414 -3.289971 0.709243 -51.376838 -9.253898 -4.485142 -14.907787 -20.988424 3.786148 0.000000 0.000000 0.000000 15.686335 8.847121 3.575709 57.041151 10.775272 -2.759032 8.108033 25.060310 2.720938 0.000000 0.000000 0.000000 
-0.000938 0.957315 -0.000562 -1.416121 2.035576 2.583836 3.493336 -0.192926 -1.926153 -4.432264 0.437977 -3.998383 4.888886 12.640934 11.789620 0.000000 0.000000 0.000000 -0.619162 0.568291 -5.786252 2.472258 -0.252613 1.125346 -5.063626 -14.493346 14.457297 0.000000 0.000000 0.000000 -2.053467 -0.033198 2.811242 4.848765 -0.581282 -23.161497 -1.447736 -1.873041 25.668295 3.115380 -0.187144 -27.371015 0.000000 0.000000 0.000000 -22.716613 -3.299190 0.708954 -51.090699 -9.890981 -4.168787 -14.913719 -21.067085 3.793375 0.000000 0.000000 0.000000 15.533140 10.010723 4.135325 55.332662 11.790491 -2.228406 8.657557 26.190406 2.955537 0.000000 0.000000 0.000000 
-0.001835 0.957313 -0.001149 -1.341885 2.066271 2.170651 3.846425 -0.192061 -1.928515 -4.746727 0.465443 -3.328954 4.420052 11.868728 11.578560 0.000000 0.000000 0.000000 -0.552801 0.568144 -5.776611 2.423856 -0.244164 1.314702 -5.058010 -14.502292 14.690096 0.000000 0.000000 0.000000 -2.215539 -0.035540 3.079498 5.044377 -0.666500 -22.647732 -1.752509 -1.626807 24.974030 3.370511 -0.355353 -26.450701 0.000000 0.000000 0.000000 -22.743383 -3.672965 0.812943 -50.256383 -10.023687 -3.981300 -15.244238 -22.034816 4.022141 0.000000 0.000000 0.000000 15.570724 9.994741 4.160291 52.970207 12.984193 -1.621810 10.109380 27.914763 3.507581 0.000000 0.000000 0.000000 
-0.002881 0.957560 -0.002060 -1.404720 1.821524 1.952563 4.336653 -0.188234 -1.880607 -5.122069 0.500656 -2.992475 4.307476 11.615689 11.289762 0.000000 0.000000 0.000000 -0.215699 0.579971 -5.808662 2.307981 -0.223912 1.583493 -4.878919 -14.193614 14.425864 0.000000 0.000000 0.000000 -2.359260 -0.027837 2.927484 5.051030 -0.684465 -22.482732 -1.591193 -1.596423 25.168059 3.694522 -0.532847 -26.760967 0.000000 0.000000 0.000000 -23.058495 -3.647180 0.831337 -49.851196 -10.697237 -3.716466 -14.914583 -23.205279 4.188390 0.000000 0.000000 0.000000 15.295338 11.273039 4.761396 49.889395 16.116673 -0.369329 9.662735 29.097856 3.526055 0.000000 0.000000 0.000000 
-0.003826 0.957751 -0.003382 -1.363205 1.604115 1.599757 4.518353 -0.196265 -2.132379 -5.259877 0.521638 -2.459847 4.197230 11.511807 11.747225 0.000000 0.000000 0.000000 -0.254652 0.593940 -5.968192 2.315736 -0.218713 1.875737 -4.746089 -13.960611 14.171788 0.000000 0.000000 0.000000 -2.426704 -0.032436 3.154865 4.955073 -0.677879 -22.322474 -1.815032 -1.377861 25.011365 4.251380 -0.860494 -26.447120 0.000000 0.000000 0.000000 -22.900990 -4.295711 1.192386 -49.664152 -11.069141 -3.541564 -14.997433 -24.554186 4.465055 0.000000 0.000000 0.000000 14.713195 12.321791 5.261271 45.877903 19.025906 0.592220 9.311331 31.155108 3.677714 0.000000 0.000000 0.000000 
-0.004449 0.958231 -0.004747 -1.622963 1.234640 1.492103 4.841571 -0.200514 -2.306018 -5.282358 0.531336 -2.200933 4.088036 11.318136 11.807457 0.000000 0.000000 0.000000 0.053386 0.628520 -6.224077 2.389025 -0.219836 2.205347 -4.940265 -14.324631 13.971836 0.000000 0.000000 0.000000 -2.064894 -0.044367 3.021951 4.348276 -0.550479 -21.945283 -1.724468 -1.249495 24.738174 4.911964 -1.344869 -25.517244 0.000000 0.000000 0.000000 -22.808968 -5.040130 1.656936 -49.489484 -12.247588 -3.039637 -14.719575 -25.602612 4.606834 0.000000 0.000000 0.000000 13.425681 13.225392 5.582391 41.144571 22.619315 1.533395 8.116746 33.208935 3.545653 0.000000 0.000000 0.000000 
-0.004863 0.958731 -0.005744 -1.627323 0.701621 1.105754 4.701034 -0.189423 -2.268126 -4.937427 0.512724 -1.791923 4.162958 11.375962 11.725954 0.000000 0.000000 0.000000 -0.198730 0.642512 -6.447660 2.692725 -0.247975 2.689780 -4.958848 -14.401140 13.780698 0.000000 0.000000 0.000000 -1.948893 -0.050535 3.008669 4.311464 -0.557942 -21.866188 -2.057402 -0.947501 24.615452 5.708911 -1.909759 -24.670099 0.000000 0.000000 0.000000 -22.570645 -5.952312 2.206229 -49.576179 -12.824257 -2.804652 -14.510736 -26.669533 4.764273 0.000000 0.000000 0.000000 11.552045 14.215570 5.886765 35.687141 27.986360 2.558244 5.750720 35.170956 2.992807 0.000000 0.000000 0.000000 
-0.005147 0.959286 -0.006127 -1.769709 0.388740 0.799423 4.890347 -0.167695 -1.966076 -4.879456 0.513391 -1.607949 3.925569 10.990886 11.821539 0.000000 0.000000 0.000000 -0.062712 0.636363 -6.341563 2.653444 -0.238883 2.808456 -4.994431 -14.499009 13.771538 0.000000 0.000000 0.000000 -1.525667 -0.059896 2.721273 3.885726 -0.469947 -21.595005 -2.095415 -1.102680 24.274253 6.074454 -2.303698 -23.582691 0.000000 0.000000 0.000000 -22.485413 -6.717185 2.753691 -49.715268 -13.373656 -2.577322 -13.457977 -26.649230 4.514628 0.000000 0.000000 0.000000 8.719164 15.567294 6.167334 29.943252 32.888005 2.917923 1.379130 36.092266 1.619877 0.000000 0.000000 0.000000 
-0.005490 0.959657 -0.005947 -1.783772 0.007963 0.501113 4.859985 -0.150852 -1.765679 -4.752563 0.507787 -1.397449 4.168731 11.321161 11.698755 0.000000 0.000000 0.000000 -0.236576 0.628069 -6.314652 2.645378 -0.225738 3.377887 -5.052755 -14.640636 13.725849 0.000000 0.000000 0.000000 -1.244287 -0.070379 2.709904 3.638764 -0.405656 -21.753744 -2.201798 -0.685480 24.234737 7.179863 -3.011532 -23.072183 0.000000 0.000000 0.000000 -22.218279 -7.513501 3.161355 -49.625009 -13.544660 -2.491785 -13.035766 -26.753472 4.413960 0.000000 0.000000 0.000000 6.287689 16.059623 6.149848 24.030010 38.041605 2.694789 -3.673856 35.506674 0.012669 0.000000 0.000000 0.000000 
-0.006033 0.959715 -0.005439 -1.946941 -0.232561 -0.028733 5.159517 -0.111675 -1.119795 -4.740967 0.510913 -1.320737 4.045118 11.073199 11.515561 0.000000 0.000000 0.000000 0.144104 0.596784 -5.890083 2.266161 -0.170047 3.530111 -4.910783 -14.417669 13.737417 0.000000 0.000000 0.000000 -0.689531 -0.098378 2.942114 3.144173 -0.276348 -21.847001 -2.273856 -0.724020 24.225654 7.705497 -3.462697 -22.426495 0.000000 0.000000 0.000000 -21.835482 -7.987560 3.497228 -49.777563 -13.963867 -2.348534 -12.090092 -25.873147 4.039834 0.000000 0.000000 0.000000 2.615873 17.234498 6.175222 18.058882 43.001168 1.831816 -8.469288 32.635387 -1.376105 0.000000 0.000000 0.000000 
-0.006806 0.959739 -0.004814 -1.871428 -0.393838 -0.178170 5.050769 -0.102823 -1.011515 -4.516036 0.492542 -0.998847 4.175988 11.197848 11.128127 0.000000 0.000000 0.000000 0.040156 0.600422 -5.957650 2.179578 -0.145312 4.087443 -5.239729 -15.010538 13.708705 0.000000 0.000000 0.000000 -0.596823 -0.101760 2.944468 2.995923 -0.233653 -21.993239 -2.480320 -0.349039 24.083054 8.640220 -4.059175 -22.020595 0.000000 0.000000 0.000000 -21.264508 -8.494838 3.681443 -50.101031 -13.492801 -2.502486 -11.435957 -25.003803 3.721482 0.000000 0.000000 0.000000 -0.672392 17.718622 5.960459 11.862704 47.720386 0.275561 -12.284797 28.751910 -2.122136 0.000000 0.000000 0.000000 
-0.007727 0.959572 -0.004000 -1.944084 -0.514169 -0.343186 5.332112 -0.097585 -0.961558 -4.341025 0.477926 -0.642170 3.982182 10.860642 11.044251 0.000000 0.000000 0.000000 0.254407 0.619514 -6.081223 1.996574 -0.109852 4.476003 -5.397729 -15.309977 13.793005 0.000000 0.000000 0.000000 -0.287334 -0.120586 3.157284 2.656830 -0.133113 -22.318410 -2.479042 -0.183172 24.000557 9.141493 -4.382512 -21.850138 0.000000 0.000000 0.000000 -21.021983 -8.308925 3.542000 -50.306667 -13.455604 -2.507048 -10.767103 -24.025479 3.412905 0.000000 0.000000 0.000000 -3.859817 18.452889 5.778618 5.350073 50.736690 -2.026051 -13.361622 25.579208 -2.116993 0.000000 0.000000 0.000000 
-0.008724 0.959636 -0.002884 -1.904795 -0.255851 -0.347487 5.369536 -0.109122 -1.153019 -4.457695 0.489083 -0.342174 4.021580 10.852359 10.548987 0.000000 0.000000 0.000000 0.234437 0.634952 -6.236133 1.983095 -0.095795 5.106948 -5.721481 -15.833295 13.673379 0.000000 0.000000 0.000000 -0.184581 -0.129413 3.289753 2.294181 -0.017255 -22.692039 -2.371803 0.223742 24.046609 9.678979 -4.614181 -21.987715 0.000000 0.000000 0.000000 -20.413838 -8.344027 3.386155 -50.756843 -12.763409 -2.766921 -11.139858 -23.548255 3.397083 0.000000 0.000000 0.000000 -6.278995 18.497690 5.446106 0.290703 52.678978 -4.023906 -14.052061 23.096981 -2.018679 0.000000 0.000000 0.000000 
-0.009793 0.959476 -0.001321 -2.033100 -0.015449 -0.446053 5.631515 -0.114242 -1.224523 -4.458223 0.487871 -0.091410 3.786914 10.524507 10.725016 0.000000 0.000000 0.000000 0.390467 0.633941 -6.172614 1.990235 -0.094553 5.315946 -6.192098 -16.643103 13.901784 0.000000 0.000000 0.000000 0.026732 -0.141013 3.383298 1.986963 0.079380 -23.006614 -2.199102 0.554307 24.067417 10.040779 -4.773016 -21.970796 0.000000 0.000000 0.000000 -20.190815 -8.179734 3.154243 -50.941365 -11.643196 -3.213762 -11.648662 -23.168844 3.426564 0.000000 0.000000 0.000000 -8.028613 18.814031 5.254956 -4.021507 53.351786 -5.760108 -14.097792 21.245683 -1.851594 0.000000 0.000000 0.000000 
-0.010873 0.959137 0.000640 -1.984468 0.255405 -0.656484 5.528963 -0.111097 -1.137328 -4.328889 0.472416 0.170903 3.737461 10.360679 10.200724 0.000000 0.000000 0.000000 0.360024 0.607387 -5.922292 1.931736 -0.079920 5.681131 -6.504582 -17.148162 13.797577 0.000000 0.000000 0.000000 0.081905 -0.151597 3.589104 1.552359 0.208795 -23.418979 -1.950352 1.136518 24.406366 10.443900 -4.946401 -21.915352 0.000000 0.000000 0.000000 -20.046018 -7.801873 2.746634 -50.827651 -10.510951 -3.676108 -12.868706 -23.336171 3.683533 0.000000 0.000000 0.000000 -9.083756 18.344890 4.921563 -7.244092 53.742972 -7.025350 -14.726615 19.467370 -1.767967 0.000000 0.000000 0.000000 
-0.011943 0.959100 0.002878 -2.139625 0.727997 -0.687549 5.679715 -0.115416 -1.089365 -4.119840 0.444469 0.127800 3.371419 9.852575 10.447809 0.000000 0.000000 0.000000 0.637989 0.549794 -5.286615 1.698893 -0.063111 5.031142 -6.948915 -17.888274 14.259947 0.000000 0.000000 0.000000 0.157508 -0.154292 3.580187 1.448118 0.251983 -23.659180 -1.849944 1.363737 24.418591 10.490708 -4.932981 -21.707033 0.000000 0.000000 0.000000 -20.009437 -7.245824 2.282884 -50.701622 -9.093385 -4.215995 -14.038379 -23.302069 3.900657 0.000000 0.000000 0.000000 -10.083196 18.480250 4.766635 -9.149161 53.132222 -7.569825 -15.092642 18.114018 -1.676204 0.000000 0.000000 0.000000 
